<?xml version="1.0" encoding="UTF-8" standalone="no"?>
<svg
   xmlns:dc="http://purl.org/dc/elements/1.1/"
   xmlns:cc="http://creativecommons.org/ns#"
   xmlns:rdf="http://www.w3.org/1999/02/22-rdf-syntax-ns#"
   xmlns:svg="http://www.w3.org/2000/svg"
   xmlns="http://www.w3.org/2000/svg"
   viewBox="0 0 401 401"
   height="401"
   width="401"
   version="1.1"
   id="svg4239">
  <metadata
     id="metadata4245">
    <rdf:RDF>
      <cc:Work
         rdf:about="">
        <dc:format>image/svg+xml</dc:format>
        <dc:type
           rdf:resource="http://purl.org/dc/dcmitype/StillImage" />
        <dc:title></dc:title>
      </cc:Work>
    </rdf:RDF>
  </metadata>
  <defs
     id="defs4243" />
  <g
     transform="translate(0,1)"
     style="display:inline"
     id="layer1">
    <rect
       y="-0.0024812261"
       x="0.9975124"
       height="399.00497"
       width="399.00497"
       id="rect4285"
       style="opacity:1;fill:#fffcf6;fill-opacity:1;fill-rule:nonzero;stroke:#000000;stroke-width:1.9950248;stroke-linecap:butt;stroke-linejoin:miter;stroke-miterlimit:4;stroke-dasharray:none;stroke-dashoffset:4.92000008;stroke-opacity:1" />
  </g>
  <g
     transform="translate(0,1)"
     style="display:inline"
     id="layer2">
    <path
       id="path4333"
       style="fill:none;fill-opacity:0.75;fill-rule:evenodd;stroke:#707070;stroke-width:1;stroke-linecap:square;stroke-linejoin:miter;stroke-miterlimit:4;stroke-dasharray:none;stroke-opacity:1"
       d="m 20.5,19.5 0,360 m 20,-360 0,360 m 20,-360 0,360 m 20,-360 0,360 m 20,-360 0,360 m 20,-360 0,360 m 20,-360 0,360 m 20,-360 0,360 m 20,-360 0,360 m 20,-360 0,360 m 20,-360 0,360 m 20,-360 0,360 m 20,-360 0,360 m 20,-360 0,360 m 20,-360 0,360 m 20,-360 0,360 m 20,-360 0,360 m 20,-360 0,360 m 20,-360 0,360 m 0,-360 0,360 m -360,-360 360,0 m -360,20 360,0 m -360,20 360,0 m -360,20 360,0 m -360,20 360,0 m -360,20 360,0 m -360,20 360,0 m -360,20 360,0 m -360,20 360,0 m -360,20 360,0 m -360,20 360,0 m -360,20 360,0 m -360,20 360,0 m -360,20 360,0 m -360,20 360,0 m -360,20 360,0 m -360,20 360,0 m -360,20 360,0 m -360,20 360,0 m -360,0 360,0" />
    <circle
       r="2"
       cy="319.5"
       cx="80.5"
       id="path4339"
       style="display:inline;opacity:1;fill:#000000;fill-opacity:1;fill-rule:nonzero;stroke:none;stroke-width:2;stroke-linecap:square;stroke-linejoin:miter;stroke-miterlimit:4;stroke-dasharray:none;stroke-dashoffset:4.92000008;stroke-opacity:1" />
    <circle
       r="2"
       cy="319.5"
       cx="320.5"
       id="path4339-4"
       style="display:inline;opacity:1;fill:#000000;fill-opacity:1;fill-rule:nonzero;stroke:none;stroke-width:2;stroke-linecap:square;stroke-linejoin:miter;stroke-miterlimit:4;stroke-dasharray:none;stroke-dashoffset:4.92000008;stroke-opacity:1" />
    <circle
       style="display:inline;opacity:1;fill:#000000;fill-opacity:1;fill-rule:nonzero;stroke:none;stroke-width:2;stroke-linecap:square;stroke-linejoin:miter;stroke-miterlimit:4;stroke-dasharray:none;stroke-dashoffset:4.92000008;stroke-opacity:1"
       id="circle4373"
       cx="200.5"
       cy="319.5"
       r="2" />
    <circle
       style="display:inline;opacity:1;fill:#000000;fill-opacity:1;fill-rule:nonzero;stroke:none;stroke-width:2;stroke-linecap:square;stroke-linejoin:miter;stroke-miterlimit:4;stroke-dasharray:none;stroke-dashoffset:4.92000008;stroke-opacity:1"
       id="circle4375"
       cx="320.5"
       cy="199.5"
       r="2" />
    <circle
       r="2"
       cy="79.5"
       cx="320.5"
       id="circle4377"
       style="display:inline;opacity:1;fill:#000000;fill-opacity:1;fill-rule:nonzero;stroke:none;stroke-width:2;stroke-linecap:square;stroke-linejoin:miter;stroke-miterlimit:4;stroke-dasharray:none;stroke-dashoffset:4.92000008;stroke-opacity:1" />
    <circle
       style="display:inline;opacity:1;fill:#000000;fill-opacity:1;fill-rule:nonzero;stroke:none;stroke-width:2;stroke-linecap:square;stroke-linejoin:miter;stroke-miterlimit:4;stroke-dasharray:none;stroke-dashoffset:4.92000008;stroke-opacity:1"
       id="circle4379"
       cx="200.5"
       cy="79.5"
       r="2" />
    <circle
       r="2"
       cy="79.5"
       cx="80.5"
       id="circle4381"
       style="display:inline;opacity:1;fill:#000000;fill-opacity:1;fill-rule:nonzero;stroke:none;stroke-width:2;stroke-linecap:square;stroke-linejoin:miter;stroke-miterlimit:4;stroke-dasharray:none;stroke-dashoffset:4.92000008;stroke-opacity:1" />
    <circle
       style="display:inline;opacity:1;fill:#000000;fill-opacity:1;fill-rule:nonzero;stroke:none;stroke-width:2;stroke-linecap:square;stroke-linejoin:miter;stroke-miterlimit:4;stroke-dasharray:none;stroke-dashoffset:4.92000008;stroke-opacity:1"
       id="circle4383"
       cx="80.5"
       cy="199.5"
       r="2" />
    <circle
       r="2"
       cy="199.5"
       cx="200.5"
       id="circle4385"
       style="display:inline;opacity:1;fill:#000000;fill-opacity:1;fill-rule:nonzero;stroke:none;stroke-width:2;stroke-linecap:square;stroke-linejoin:miter;stroke-miterlimit:4;stroke-dasharray:none;stroke-dashoffset:4.92000008;stroke-opacity:1" />
  </g>
  <g
     id="layer4" />
</svg>
